<svg width="160" height="160" viewBox="40 40 80 80" fill="none" xmlns="http://www.w3.org/2000/svg">
<path d="M48 48H112V112H48V48Z" fill="black"/>
<path d="M55.2002 100H79.2002V104H55.2002V100Z" fill="white"/>
<path d="M53.9597 64.4962L55.7436 62.8161C56.0962 63.3655 56.6921 63.7109 57.3436 63.7443C58.0318 63.7443 58.4716 63.2721 58.4716 62.3443V56.0002H61.2238V62.4002C61.3037 63.4326 60.9465 64.4514 60.2397 65.2084C59.5013 65.9007 58.5151 66.267 57.5036 66.2242C56.1036 66.2967 54.7649 65.6438 53.9597 64.4962Z" fill="white"/>
<path d="M62.3998 56H70.3997V58.4H65.1679V59.9281H69.9679V62.1121H65.1679V63.712H70.5358V66.0639H62.3998V56Z" fill="white"/>
<path d="M74.3997 58.448H71.3998V56.0001H80.1438V58.4002H77.1516V65.9599H74.3997V58.448Z" fill="white"/>
<path d="M55.0718 69.952H59.7839C60.7754 69.8714 61.7579 70.1909 62.5118 70.8401C62.9314 71.2657 63.162 71.8424 63.1519 72.44C63.194 73.4592 62.5634 74.3857 61.5998 74.72C62.8158 75.1201 63.5836 75.808 63.5836 77.1598C63.5836 78.872 62.1839 79.912 59.7997 79.912H55.0718V69.952ZM60.4239 73.0321C60.4239 72.4801 59.9837 72.1761 59.1678 72.1761H57.7677V73.9361H59.0956C59.9436 73.9361 60.4239 73.6479 60.4239 73.0642V73.0321ZM59.4718 75.872H57.7677V77.72H59.4957C60.3518 77.72 60.8236 77.392 60.8236 76.7999C60.7997 76.232 60.3996 75.872 59.4718 75.872Z" fill="white"/>
<path d="M64.4797 69.9521H68.9037C70.089 69.8574 71.2626 70.2436 72.1598 71.0242C72.7654 71.6437 73.0869 72.4866 73.0479 73.3521C73.0896 74.7141 72.2646 75.9537 70.9916 76.44L73.3916 79.9203H70.1918L68.1757 76.896H67.2478V79.9203H64.4797V69.9521ZM68.7918 74.7522C69.7196 74.7522 70.2798 74.2881 70.2798 73.5601C70.2798 72.7603 69.6876 72.3602 68.7756 72.3602H67.2478V74.7602L68.7918 74.7522Z" fill="white"/>
<path d="M76.8958 69.88H79.5678L83.8158 79.9439H80.8479L80.1357 78.1441H76.2638L75.5517 79.9439H72.6559L76.8958 69.88ZM79.2958 75.9921L78.1839 73.1681L77.0798 75.9999L79.2958 75.9921Z" fill="white"/>
<path d="M84.2238 69.9202H86.9918V79.9123H84.2238V69.9202Z" fill="white"/>
<path d="M88.0636 69.9202H90.6476L94.2475 75.2002V69.9202H96.9836V79.9123H94.5835L90.8077 74.4001V79.8803H88.0636V69.9202Z" fill="white"/>
<path d="M97.4558 78.4001L98.9998 76.5602C99.8997 77.3108 101.028 77.7337 102.2 77.76C102.952 77.76 103.352 77.4961 103.352 77.0721C103.352 76.6481 103.024 76.4321 101.656 76.1042C99.5279 75.6161 97.8879 75.0159 97.8879 72.9761C97.8879 71.1201 99.3597 69.776 101.752 69.776C103.237 69.717 104.694 70.1875 105.864 71.1039L104.48 73.056C103.67 72.4467 102.692 72.1029 101.68 72.0719C101.016 72.0719 100.688 72.3439 100.688 72.72C100.688 73.176 101.024 73.3762 102.424 73.696C104.712 74.1922 106.136 74.936 106.136 76.8001C106.136 78.8399 104.536 80.0559 102.136 80.0559C100.426 80.093 98.7618 79.5038 97.4558 78.4001Z" fill="white"/>
</svg>
